<svg width="1976" height="1634" viewBox="0 0 1976 1634" fill="none" xmlns="http://www.w3.org/2000/svg">
<g filter="url(#filter0_f_130_57)">
<path d="M576 1624L76 1124H576V1624Z" fill="url(#paint0_linear_130_57)"/>
</g>
<g filter="url(#filter1_f_130_57)">
<path d="M1966 576L1466 76V576H1966Z" fill="url(#paint1_linear_130_57)"/>
</g>
<g filter="url(#filter2_dd_130_57)">
<rect x="76" y="76" width="1414" height="1072" rx="50" fill="url(#paint2_linear_130_57)"/>
<rect x="73" y="73" width="1420" height="1078" rx="53" stroke="url(#paint3_linear_130_57)" stroke-width="6"/>
</g>
<rect x="100" y="100" width="1366" height="1024" rx="34" fill="#2261EB"/>
<rect x="666" y="1104" width="234" height="5" rx="2.5" fill="white"/>
<path d="M128.797 126.256C131.485 126.256 133.082 124.154 133.082 120.587C133.082 117.086 131.383 115.167 128.856 115.167C126.556 115.167 124.93 116.713 124.93 118.874C124.93 120.902 126.395 122.382 128.409 122.382C129.647 122.382 130.65 121.811 131.148 120.807H131.273C131.251 123.29 130.365 124.711 128.819 124.711C127.911 124.711 127.186 124.213 126.959 123.407H125.077C125.384 125.128 126.864 126.256 128.797 126.256ZM128.863 120.924C127.633 120.924 126.783 120.06 126.783 118.815C126.783 117.621 127.677 116.706 128.871 116.706C130.064 116.706 130.958 117.636 130.958 118.852C130.958 120.053 130.086 120.924 128.863 120.924ZM136.1 119.159C136.796 119.159 137.272 118.676 137.272 118.024C137.272 117.372 136.796 116.889 136.1 116.889C135.411 116.889 134.928 117.372 134.928 118.024C134.928 118.676 135.411 119.159 136.1 119.159ZM136.1 124.535C136.796 124.535 137.272 124.044 137.272 123.4C137.272 122.748 136.796 122.265 136.1 122.265C135.411 122.265 134.928 122.748 134.928 123.4C134.928 124.044 135.411 124.535 136.1 124.535ZM144.274 126H146.083V123.971H147.511V122.411H146.083V115.431H143.417C141.982 117.614 140.48 120.045 139.11 122.426V123.971H144.274V126ZM140.861 122.345C141.894 120.551 143.117 118.595 144.201 116.94H144.303V122.455H140.861V122.345ZM151.54 126H153.43V115.431H151.547L148.786 117.372V119.152L151.415 117.292H151.54V126ZM166.848 126H168.877L165.12 115.431H162.996L159.246 126H161.157L162.065 123.268H165.955L166.848 126ZM163.955 117.416H164.08L165.515 121.811H162.505L163.955 117.416ZM181.306 126V115.431H179.095L175.916 123.275H175.784L172.605 115.431H170.393V126H172.151V118.507H172.254L175.176 125.67H176.524L179.446 118.507H179.549V126H181.306Z" fill="white"/>
<path d="M1370.88 126H1372.76V115.431H1370.88L1368.12 117.372V119.152L1370.75 117.292H1370.88V126ZM1379.35 126.264C1381.88 126.264 1383.38 124.22 1383.38 120.719C1383.38 117.211 1381.85 115.167 1379.35 115.167C1376.84 115.167 1375.31 117.211 1375.31 120.705C1375.31 124.213 1376.82 126.264 1379.35 126.264ZM1379.35 124.733C1378.01 124.733 1377.23 123.341 1377.23 120.705C1377.23 118.09 1378.02 116.706 1379.35 116.706C1380.68 116.706 1381.47 118.083 1381.47 120.705C1381.47 123.349 1380.69 124.733 1379.35 124.733ZM1389.03 126.264C1391.55 126.264 1393.05 124.22 1393.05 120.719C1393.05 117.211 1391.53 115.167 1389.03 115.167C1386.51 115.167 1384.99 117.211 1384.99 120.705C1384.99 124.213 1386.49 126.264 1389.03 126.264ZM1389.03 124.733C1387.68 124.733 1386.9 123.341 1386.9 120.705C1386.9 118.09 1387.7 116.706 1389.03 116.706C1390.35 116.706 1391.14 118.083 1391.14 120.705C1391.14 123.349 1390.37 124.733 1389.03 124.733ZM1396.57 120.309C1398.1 120.309 1399 119.364 1399 117.768C1399 116.193 1398.08 115.233 1396.57 115.233C1395.07 115.233 1394.14 116.2 1394.14 117.768C1394.14 119.364 1395.05 120.309 1396.57 120.309ZM1397.44 126L1404.56 115.431H1403.05L1395.93 126H1397.44ZM1396.57 119.145C1395.97 119.145 1395.61 118.646 1395.61 117.775C1395.61 116.918 1395.97 116.398 1396.57 116.398C1397.17 116.398 1397.53 116.918 1397.53 117.775C1397.53 118.639 1397.18 119.145 1396.57 119.145ZM1403.92 126.117C1405.45 126.117 1406.35 125.172 1406.35 123.568C1406.35 122.001 1405.42 121.042 1403.92 121.042C1402.41 121.042 1401.48 122.001 1401.48 123.568C1401.48 125.165 1402.39 126.117 1403.92 126.117ZM1403.92 124.953C1403.31 124.953 1402.96 124.455 1402.96 123.576C1402.96 122.719 1403.32 122.206 1403.92 122.206C1404.52 122.206 1404.88 122.719 1404.88 123.576C1404.88 124.447 1404.52 124.953 1403.92 124.953Z" fill="white"/>
<rect opacity="0.35" x="1412.83" y="115.834" width="21" height="10.3333" rx="2.16667" stroke="white"/>
<path opacity="0.4" d="M1435.33 119.001V123.001C1436.14 122.662 1436.66 121.874 1436.66 121.001C1436.66 120.128 1436.14 119.34 1435.33 119.001" fill="white"/>
<rect x="1414.33" y="117.334" width="18" height="7.33333" rx="1.33333" fill="white"/>
<path fill-rule="evenodd" clip-rule="evenodd" d="M1351.67 117.615C1353.89 117.615 1356.03 118.469 1357.64 120C1357.77 120.119 1357.96 120.117 1358.08 119.997L1359.24 118.827C1359.3 118.766 1359.33 118.683 1359.33 118.597C1359.33 118.512 1359.3 118.429 1359.24 118.369C1355 114.317 1348.33 114.317 1344.1 118.369C1344.04 118.429 1344 118.511 1344 118.597C1344 118.683 1344.03 118.766 1344.09 118.827L1345.25 119.997C1345.37 120.117 1345.57 120.119 1345.69 120C1347.3 118.469 1349.44 117.615 1351.67 117.615ZM1351.67 121.422C1352.89 121.422 1354.07 121.876 1354.97 122.696C1355.1 122.812 1355.29 122.81 1355.41 122.69L1356.57 121.52C1356.63 121.458 1356.66 121.375 1356.66 121.289C1356.66 121.202 1356.63 121.119 1356.56 121.059C1353.8 118.495 1349.53 118.495 1346.77 121.059C1346.71 121.119 1346.67 121.202 1346.67 121.289C1346.67 121.375 1346.71 121.458 1346.77 121.52L1347.93 122.69C1348.05 122.81 1348.24 122.812 1348.36 122.696C1349.27 121.877 1350.45 121.423 1351.67 121.422ZM1353.99 123.984C1353.99 124.071 1353.96 124.154 1353.89 124.215L1351.89 126.237C1351.83 126.297 1351.75 126.33 1351.67 126.33C1351.58 126.33 1351.5 126.297 1351.44 126.237L1349.44 124.215C1349.38 124.154 1349.34 124.071 1349.34 123.984C1349.35 123.897 1349.38 123.815 1349.45 123.757C1350.73 122.675 1352.6 122.675 1353.89 123.757C1353.95 123.815 1353.99 123.897 1353.99 123.984Z" fill="white"/>
<rect x="100" y="100" width="1367" height="1024" rx="34" fill="url(#paint4_linear_130_57)" fill-opacity="0.25" style="mix-blend-mode:screen"/>
<path opacity="0.5" d="M311 70L311 68.5C311 67.6716 310.328 67 309.5 67L254.5 67C253.672 67 253 67.6716 253 68.5L253 70L311 70Z" fill="black"/>
<path opacity="0.5" d="M234 70L234 68.5C234 67.6716 233.328 67 232.5 67L177.5 67C176.672 67 176 67.6716 176 68.5L176 70L234 70Z" fill="black"/>
<path opacity="0.5" d="M70 176L68.5 176C67.6716 176 67 176.672 67 177.5L67 232.5C67 233.328 67.6716 234 68.5 234L70 234L70 176Z" fill="black"/>
<circle cx="88" cy="612" r="6" fill="black"/>
<circle cx="88" cy="612" r="6" fill="black"/>
<circle cx="88" cy="612" r="6" fill="black"/>
<circle cx="88" cy="612" r="6" fill="black"/>
<circle opacity="0.15" cx="88.0001" cy="611.999" r="3.6" fill="white"/>
<defs>
<filter id="filter0_f_130_57" x="66" y="1114" width="520" height="520" filterUnits="userSpaceOnUse" color-interpolation-filters="sRGB">
<feFlood flood-opacity="0" result="BackgroundImageFix"/>
<feBlend mode="normal" in="SourceGraphic" in2="BackgroundImageFix" result="shape"/>
<feGaussianBlur stdDeviation="5" result="effect1_foregroundBlur_130_57"/>
</filter>
<filter id="filter1_f_130_57" x="1456" y="66" width="520" height="520" filterUnits="userSpaceOnUse" color-interpolation-filters="sRGB">
<feFlood flood-opacity="0" result="BackgroundImageFix"/>
<feBlend mode="normal" in="SourceGraphic" in2="BackgroundImageFix" result="shape"/>
<feGaussianBlur stdDeviation="5" result="effect1_foregroundBlur_130_57"/>
</filter>
<filter id="filter2_dd_130_57" x="0" y="0" width="1726" height="1384" filterUnits="userSpaceOnUse" color-interpolation-filters="sRGB">
<feFlood flood-opacity="0" result="BackgroundImageFix"/>
<feColorMatrix in="SourceAlpha" type="matrix" values="0 0 0 0 0 0 0 0 0 0 0 0 0 0 0 0 0 0 127 0" result="hardAlpha"/>
<feOffset dx="80" dy="80"/>
<feGaussianBlur stdDeviation="75"/>
<feColorMatrix type="matrix" values="0 0 0 0 0 0 0 0 0 0 0 0 0 0 0 0 0 0 0.25 0"/>
<feBlend mode="normal" in2="BackgroundImageFix" result="effect1_dropShadow_130_57"/>
<feColorMatrix in="SourceAlpha" type="matrix" values="0 0 0 0 0 0 0 0 0 0 0 0 0 0 0 0 0 0 127 0" result="hardAlpha"/>
<feOffset dx="20" dy="20"/>
<feGaussianBlur stdDeviation="25"/>
<feColorMatrix type="matrix" values="0 0 0 0 0 0 0 0 0 0 0 0 0 0 0 0 0 0 0.35 0"/>
<feBlend mode="normal" in2="effect1_dropShadow_130_57" result="effect2_dropShadow_130_57"/>
<feBlend mode="normal" in="SourceGraphic" in2="effect2_dropShadow_130_57" result="shape"/>
</filter>
<linearGradient id="paint0_linear_130_57" x1="97.2912" y1="1041.63" x2="360.34" y2="1355.43" gradientUnits="userSpaceOnUse">
<stop stop-opacity="0.35"/>
<stop offset="1" stop-opacity="0"/>
</linearGradient>
<linearGradient id="paint1_linear_130_57" x1="1474.95" y1="88.4131" x2="1741.5" y2="355.785" gradientUnits="userSpaceOnUse">
<stop stop-opacity="0.35"/>
<stop offset="0.796875" stop-opacity="0"/>
</linearGradient>
<linearGradient id="paint2_linear_130_57" x1="248.607" y1="76" x2="672.334" y2="769.379" gradientUnits="userSpaceOnUse">
<stop stop-color="#2B2B2B"/>
<stop offset="1"/>
</linearGradient>
<linearGradient id="paint3_linear_130_57" x1="76" y1="76" x2="729.246" y2="726.86" gradientUnits="userSpaceOnUse">
<stop stop-color="#D7D7D7"/>
<stop offset="1" stop-color="#B7B7B7"/>
</linearGradient>
<linearGradient id="paint4_linear_130_57" x1="112.503" y1="105.777" x2="385.729" y2="892.861" gradientUnits="userSpaceOnUse">
<stop stop-color="white"/>
<stop offset="0.645833" stop-color="white" stop-opacity="0"/>
</linearGradient>
</defs>
</svg>
