<svg width="1634" height="1976" viewBox="0 0 1634 1976" fill="none" xmlns="http://www.w3.org/2000/svg">
<g filter="url(#filter0_f_130_95)">
<path d="M576 1966L76 1466H576V1966Z" fill="url(#paint0_linear_130_95)"/>
</g>
<g filter="url(#filter1_f_130_95)">
<path d="M1624 576L1124 76V576H1624Z" fill="url(#paint1_linear_130_95)"/>
</g>
<g filter="url(#filter2_dd_130_95)">
<rect x="76" y="76" width="1072" height="1414" rx="50" fill="url(#paint2_linear_130_95)"/>
<rect x="73" y="73" width="1078" height="1420" rx="53" stroke="url(#paint3_linear_130_95)" stroke-width="6"/>
</g>
<rect x="99" y="100" width="1024" height="1366" rx="34" fill="#2261EB"/>
<path d="M123.797 129.256C126.485 129.256 128.082 127.154 128.082 123.587C128.082 120.086 126.383 118.167 123.856 118.167C121.556 118.167 119.93 119.713 119.93 121.874C119.93 123.902 121.395 125.382 123.409 125.382C124.647 125.382 125.65 124.811 126.148 123.807H126.273C126.251 126.29 125.365 127.711 123.819 127.711C122.911 127.711 122.186 127.213 121.959 126.407H120.077C120.384 128.128 121.864 129.256 123.797 129.256ZM123.863 123.924C122.633 123.924 121.783 123.06 121.783 121.815C121.783 120.621 122.677 119.706 123.871 119.706C125.064 119.706 125.958 120.636 125.958 121.852C125.958 123.053 125.086 123.924 123.863 123.924ZM131.1 122.159C131.796 122.159 132.272 121.676 132.272 121.024C132.272 120.372 131.796 119.889 131.1 119.889C130.411 119.889 129.928 120.372 129.928 121.024C129.928 121.676 130.411 122.159 131.1 122.159ZM131.1 127.535C131.796 127.535 132.272 127.044 132.272 126.4C132.272 125.748 131.796 125.265 131.1 125.265C130.411 125.265 129.928 125.748 129.928 126.4C129.928 127.044 130.411 127.535 131.1 127.535ZM139.274 129H141.083V126.971H142.511V125.411H141.083V118.431H138.417C136.982 120.614 135.48 123.045 134.11 125.426V126.971H139.274V129ZM135.861 125.345C136.894 123.551 138.117 121.595 139.201 119.94H139.303V125.455H135.861V125.345ZM146.54 129H148.43V118.431H146.547L143.786 120.372V122.152L146.415 120.292H146.54V129ZM161.848 129H163.877L160.12 118.431H157.996L154.246 129H156.157L157.065 126.268H160.955L161.848 129ZM158.955 120.416H159.08L160.515 124.811H157.505L158.955 120.416ZM176.306 129V118.431H174.095L170.916 126.275H170.784L167.605 118.431H165.393V129H167.151V121.507H167.254L170.176 128.67H171.524L174.446 121.507H174.549V129H176.306Z" fill="white"/>
<path d="M1036.88 129H1038.76V118.431H1036.88L1034.12 120.372V122.152L1036.75 120.292H1036.88V129ZM1045.35 129.264C1047.88 129.264 1049.38 127.22 1049.38 123.719C1049.38 120.211 1047.85 118.167 1045.35 118.167C1042.84 118.167 1041.31 120.211 1041.31 123.705C1041.31 127.213 1042.82 129.264 1045.35 129.264ZM1045.35 127.733C1044.01 127.733 1043.23 126.341 1043.23 123.705C1043.23 121.09 1044.02 119.706 1045.35 119.706C1046.68 119.706 1047.47 121.083 1047.47 123.705C1047.47 126.349 1046.69 127.733 1045.35 127.733ZM1055.03 129.264C1057.55 129.264 1059.05 127.22 1059.05 123.719C1059.05 120.211 1057.53 118.167 1055.03 118.167C1052.51 118.167 1050.99 120.211 1050.99 123.705C1050.99 127.213 1052.49 129.264 1055.03 129.264ZM1055.03 127.733C1053.68 127.733 1052.9 126.341 1052.9 123.705C1052.9 121.09 1053.7 119.706 1055.03 119.706C1056.35 119.706 1057.14 121.083 1057.14 123.705C1057.14 126.349 1056.37 127.733 1055.03 127.733ZM1062.57 123.309C1064.1 123.309 1065 122.364 1065 120.768C1065 119.193 1064.08 118.233 1062.57 118.233C1061.07 118.233 1060.14 119.2 1060.14 120.768C1060.14 122.364 1061.05 123.309 1062.57 123.309ZM1063.44 129L1070.56 118.431H1069.05L1061.93 129H1063.44ZM1062.57 122.145C1061.97 122.145 1061.61 121.646 1061.61 120.775C1061.61 119.918 1061.97 119.398 1062.57 119.398C1063.17 119.398 1063.53 119.918 1063.53 120.775C1063.53 121.639 1063.18 122.145 1062.57 122.145ZM1069.92 129.117C1071.45 129.117 1072.35 128.172 1072.35 126.568C1072.35 125.001 1071.42 124.042 1069.92 124.042C1068.41 124.042 1067.48 125.001 1067.48 126.568C1067.48 128.165 1068.39 129.117 1069.92 129.117ZM1069.92 127.953C1069.31 127.953 1068.96 127.455 1068.96 126.576C1068.96 125.719 1069.32 125.206 1069.92 125.206C1070.52 125.206 1070.88 125.719 1070.88 126.576C1070.88 127.447 1070.52 127.953 1069.92 127.953Z" fill="white"/>
<rect opacity="0.35" x="1078.83" y="118.834" width="21" height="10.3333" rx="2.16667" stroke="white"/>
<path opacity="0.4" d="M1101.33 122.001V126.001C1102.14 125.662 1102.66 124.874 1102.66 124.001C1102.66 123.128 1102.14 122.34 1101.33 122.001Z" fill="white"/>
<rect x="1080.33" y="120.334" width="18" height="7.33333" rx="1.33333" fill="white"/>
<path fill-rule="evenodd" clip-rule="evenodd" d="M1017.67 120.615C1019.89 120.615 1022.03 121.469 1023.64 123C1023.77 123.119 1023.96 123.117 1024.08 122.997L1025.24 121.827C1025.3 121.766 1025.33 121.683 1025.33 121.597C1025.33 121.512 1025.3 121.429 1025.24 121.369C1021 117.317 1014.33 117.317 1010.1 121.369C1010.04 121.429 1010 121.511 1010 121.597C1010 121.683 1010.03 121.766 1010.09 121.827L1011.25 122.997C1011.37 123.117 1011.57 123.119 1011.69 123C1013.3 121.469 1015.44 120.615 1017.67 120.615ZM1017.67 124.422C1018.89 124.422 1020.07 124.876 1020.97 125.696C1021.1 125.812 1021.29 125.81 1021.41 125.69L1022.57 124.52C1022.63 124.458 1022.66 124.375 1022.66 124.289C1022.66 124.202 1022.63 124.119 1022.56 124.059C1019.8 121.495 1015.53 121.495 1012.77 124.059C1012.71 124.119 1012.67 124.202 1012.67 124.289C1012.67 124.375 1012.71 124.458 1012.77 124.52L1013.93 125.69C1014.05 125.81 1014.24 125.812 1014.36 125.696C1015.27 124.877 1016.45 124.423 1017.67 124.422ZM1019.99 126.984C1019.99 127.071 1019.96 127.154 1019.89 127.215L1017.89 129.237C1017.83 129.297 1017.75 129.33 1017.67 129.33C1017.58 129.33 1017.5 129.297 1017.44 129.237L1015.44 127.215C1015.38 127.154 1015.34 127.071 1015.34 126.984C1015.35 126.897 1015.38 126.815 1015.45 126.757C1016.73 125.675 1018.6 125.675 1019.89 126.757C1019.95 126.815 1019.99 126.897 1019.99 126.984Z" fill="white"/>
<rect x="495" y="1446" width="234" height="5" rx="2.5" fill="white"/>
<rect x="99" y="100" width="1024" height="1366" rx="34" fill="url(#paint4_linear_130_95)" fill-opacity="0.25" style="mix-blend-mode:screen"/>
<path opacity="0.5" d="M1154 234L1155.5 234C1156.33 234 1157 233.328 1157 232.5L1157 177.5C1157 176.672 1156.33 176 1155.5 176L1154 176L1154 234Z" fill="black"/>
<path opacity="0.5" d="M1154 311L1155.5 311C1156.33 311 1157 310.328 1157 309.5L1157 254.5C1157 253.672 1156.33 253 1155.5 253L1154 253L1154 311Z" fill="black"/>
<path opacity="0.5" d="M1048 70L1048 68.5C1048 67.6716 1047.33 67 1046.5 67L991.5 67C990.672 67 990 67.6716 990 68.5L990 70L1048 70Z" fill="black"/>
<circle cx="611" cy="88" r="6" fill="black"/>
<circle cx="611" cy="88" r="6" fill="black"/>
<circle cx="611" cy="88" r="6" fill="black"/>
<circle cx="611" cy="88" r="6" fill="black"/>
<circle opacity="0.15" cx="611" cy="87.9992" r="3.6" fill="white"/>
<defs>
<filter id="filter0_f_130_95" x="66" y="1456" width="520" height="520" filterUnits="userSpaceOnUse" color-interpolation-filters="sRGB">
<feFlood flood-opacity="0" result="BackgroundImageFix"/>
<feBlend mode="normal" in="SourceGraphic" in2="BackgroundImageFix" result="shape"/>
<feGaussianBlur stdDeviation="5" result="effect1_foregroundBlur_130_95"/>
</filter>
<filter id="filter1_f_130_95" x="1114" y="66" width="520" height="520" filterUnits="userSpaceOnUse" color-interpolation-filters="sRGB">
<feFlood flood-opacity="0" result="BackgroundImageFix"/>
<feBlend mode="normal" in="SourceGraphic" in2="BackgroundImageFix" result="shape"/>
<feGaussianBlur stdDeviation="5" result="effect1_foregroundBlur_130_95"/>
</filter>
<filter id="filter2_dd_130_95" x="0" y="0" width="1384" height="1726" filterUnits="userSpaceOnUse" color-interpolation-filters="sRGB">
<feFlood flood-opacity="0" result="BackgroundImageFix"/>
<feColorMatrix in="SourceAlpha" type="matrix" values="0 0 0 0 0 0 0 0 0 0 0 0 0 0 0 0 0 0 127 0" result="hardAlpha"/>
<feOffset dx="80" dy="80"/>
<feGaussianBlur stdDeviation="75"/>
<feColorMatrix type="matrix" values="0 0 0 0 0 0 0 0 0 0 0 0 0 0 0 0 0 0 0.25 0"/>
<feBlend mode="normal" in2="BackgroundImageFix" result="effect1_dropShadow_130_95"/>
<feColorMatrix in="SourceAlpha" type="matrix" values="0 0 0 0 0 0 0 0 0 0 0 0 0 0 0 0 0 0 127 0" result="hardAlpha"/>
<feOffset dx="20" dy="20"/>
<feGaussianBlur stdDeviation="25"/>
<feColorMatrix type="matrix" values="0 0 0 0 0 0 0 0 0 0 0 0 0 0 0 0 0 0 0.35 0"/>
<feBlend mode="normal" in2="effect1_dropShadow_130_95" result="effect2_dropShadow_130_95"/>
<feBlend mode="normal" in="SourceGraphic" in2="effect2_dropShadow_130_95" result="shape"/>
</filter>
<linearGradient id="paint0_linear_130_95" x1="97.2912" y1="1383.63" x2="360.34" y2="1697.43" gradientUnits="userSpaceOnUse">
<stop stop-opacity="0.35"/>
<stop offset="1" stop-opacity="0"/>
</linearGradient>
<linearGradient id="paint1_linear_130_95" x1="1132.95" y1="88.4131" x2="1399.5" y2="355.785" gradientUnits="userSpaceOnUse">
<stop stop-opacity="0.35"/>
<stop offset="0.796875" stop-opacity="0"/>
</linearGradient>
<linearGradient id="paint2_linear_130_95" x1="206.859" y1="76" x2="833.75" y2="665.614" gradientUnits="userSpaceOnUse">
<stop stop-color="#3E3E3E"/>
<stop offset="1"/>
</linearGradient>
<linearGradient id="paint3_linear_130_95" x1="76" y1="76" x2="819.165" y2="501.586" gradientUnits="userSpaceOnUse">
<stop stop-color="#CFCFCF"/>
<stop offset="1" stop-color="#9F9F9F"/>
</linearGradient>
<linearGradient id="paint4_linear_130_95" x1="108.366" y1="107.707" x2="634.562" y2="958.9" gradientUnits="userSpaceOnUse">
<stop stop-color="white"/>
<stop offset="0.645833" stop-color="white" stop-opacity="0"/>
</linearGradient>
</defs>
</svg>
