<svg width="528" height="568" viewBox="0 0 528 568" fill="none" xmlns="http://www.w3.org/2000/svg">
<g filter="url(#filter0_f_142_12)">
<path d="M282 514L82 314H282V514Z" fill="url(#paint0_linear_142_12)"/>
</g>
<g filter="url(#filter1_f_142_12)">
<path d="M472 278L272 78V278H472Z" fill="url(#paint1_linear_142_12)"/>
</g>
<g filter="url(#filter2_dd_142_12)">
<rect x="76" y="76" width="216" height="256" rx="50" fill="url(#paint2_linear_142_12)"/>
<rect x="73" y="73" width="222" height="262" rx="53" stroke="url(#paint3_linear_142_12)" stroke-width="6"/>
</g>
<rect x="92" y="92" width="184" height="224" rx="34" fill="#2261EB"/>
<rect x="92" y="92" width="184" height="224" rx="34" fill="url(#paint4_linear_142_12)" style="mix-blend-mode:screen"/>
<path opacity="0.5" d="M298 272L299.5 272C300.328 272 301 271.328 301 270.5L301 231.5C301 230.672 300.328 230 299.5 230L298 230L298 272Z" fill="black"/>
<path opacity="0.5" d="M298 126C302.418 126 306 129.582 306 134V160C306 164.418 302.418 168 298 168V126Z" fill="black"/>
<path opacity="0.75" fill-rule="evenodd" clip-rule="evenodd" d="M298 126C296.234 129.535 295 137.607 295 147C295 156.393 296.234 164.465 298 168V126Z" fill="black"/>
<defs>
<filter id="filter0_f_142_12" x="72" y="304" width="220" height="220" filterUnits="userSpaceOnUse" color-interpolation-filters="sRGB">
<feFlood flood-opacity="0" result="BackgroundImageFix"/>
<feBlend mode="normal" in="SourceGraphic" in2="BackgroundImageFix" result="shape"/>
<feGaussianBlur stdDeviation="5" result="effect1_foregroundBlur_142_12"/>
</filter>
<filter id="filter1_f_142_12" x="262" y="68" width="220" height="220" filterUnits="userSpaceOnUse" color-interpolation-filters="sRGB">
<feFlood flood-opacity="0" result="BackgroundImageFix"/>
<feBlend mode="normal" in="SourceGraphic" in2="BackgroundImageFix" result="shape"/>
<feGaussianBlur stdDeviation="5" result="effect1_foregroundBlur_142_12"/>
</filter>
<filter id="filter2_dd_142_12" x="0" y="0" width="528" height="568" filterUnits="userSpaceOnUse" color-interpolation-filters="sRGB">
<feFlood flood-opacity="0" result="BackgroundImageFix"/>
<feColorMatrix in="SourceAlpha" type="matrix" values="0 0 0 0 0 0 0 0 0 0 0 0 0 0 0 0 0 0 127 0" result="hardAlpha"/>
<feOffset dx="80" dy="80"/>
<feGaussianBlur stdDeviation="75"/>
<feColorMatrix type="matrix" values="0 0 0 0 0 0 0 0 0 0 0 0 0 0 0 0 0 0 0.25 0"/>
<feBlend mode="normal" in2="BackgroundImageFix" result="effect1_dropShadow_142_12"/>
<feColorMatrix in="SourceAlpha" type="matrix" values="0 0 0 0 0 0 0 0 0 0 0 0 0 0 0 0 0 0 127 0" result="hardAlpha"/>
<feOffset dx="20" dy="20"/>
<feGaussianBlur stdDeviation="25"/>
<feColorMatrix type="matrix" values="0 0 0 0 0 0 0 0 0 0 0 0 0 0 0 0 0 0 0.35 0"/>
<feBlend mode="normal" in2="effect1_dropShadow_142_12" result="effect2_dropShadow_142_12"/>
<feBlend mode="normal" in="SourceGraphic" in2="effect2_dropShadow_142_12" result="shape"/>
</filter>
<linearGradient id="paint0_linear_142_12" x1="90.5165" y1="281.053" x2="195.736" y2="406.57" gradientUnits="userSpaceOnUse">
<stop stop-opacity="0.35"/>
<stop offset="1" stop-opacity="0"/>
</linearGradient>
<linearGradient id="paint1_linear_142_12" x1="275.58" y1="82.9652" x2="382.199" y2="189.914" gradientUnits="userSpaceOnUse">
<stop stop-opacity="0.35"/>
<stop offset="0.796875" stop-opacity="0"/>
</linearGradient>
<linearGradient id="paint2_linear_142_12" x1="102.367" y1="76" x2="215.958" y2="194.902" gradientUnits="userSpaceOnUse">
<stop stop-color="#2B2B2B"/>
<stop offset="1"/>
</linearGradient>
<linearGradient id="paint3_linear_142_12" x1="76" y1="76" x2="288.588" y2="153.468" gradientUnits="userSpaceOnUse">
<stop stop-color="#646464"/>
<stop offset="1" stop-color="#282828"/>
</linearGradient>
<linearGradient id="paint4_linear_142_12" x1="112.5" y1="99.5" x2="199" y2="304" gradientUnits="userSpaceOnUse">
<stop stop-color="white" stop-opacity="0.25"/>
<stop offset="0.578125" stop-color="white" stop-opacity="0"/>
</linearGradient>
</defs>
</svg>
